<svg id="Scroll_down_copy" data-name="Scroll down copy" xmlns="http://www.w3.org/2000/svg" width="37" height="96" viewBox="0 0 37 96">
  <metadata><?xpacket begin="﻿" id="W5M0MpCehiHzreSzNTczkc9d"?>
<x:xmpmeta xmlns:x="adobe:ns:meta/" x:xmptk="Adobe XMP Core 5.6-c138 79.159824, 2016/09/14-01:09:01        ">
   <rdf:RDF xmlns:rdf="http://www.w3.org/1999/02/22-rdf-syntax-ns#">
      <rdf:Description rdf:about=""/>
   </rdf:RDF>
</x:xmpmeta>
                                                                                                    
                                                                                                    
                                                                                                    
                                                                                                    
                                                                                                    
                                                                                                    
                                                                                                    
                                                                                                    
                                                                                                    
                                                                                                    
                                                                                                    
                                                                                                    
                                                                                                    
                                                                                                    
                                                                                                    
                                                                                                    
                                                                                                    
                                                                                                    
                                                                                                    
                                                                                                    
                           
<?xpacket end="w"?></metadata>
<defs>
    <style>
      .cls-1 {
        fill: none;
        stroke: #fff;
        stroke-width: 3px;
      }

      .cls-1, .cls-2 {
        fill-rule: evenodd;
      }

      .cls-2, .cls-3 {
        fill: #fff;
      }
    </style>
  </defs>
  <path id="Rounded_Rectangle_3" data-name="Rounded Rectangle 3" class="cls-1" d="M960,759a17,17,0,0,1,17,17v59a17,17,0,0,1-34,0V776A17,17,0,0,1,960,759Zm3.25,17.312c4.919,0,8.906,4.492,8.906,10.032s-3.987,10.031-8.906,10.031-8.906-4.491-8.906-10.031S958.331,776.312,963.25,776.312Z" transform="translate(-941.5 -757.5)"/>
  <path class="cls-2" d="M960,768a10,10,0,1,1-10,10A10,10,0,0,1,960,768Zm1,28v29" transform="translate(-941.5 -757.5)"/>
  <rect class="cls-3" x="17.5" y="43.5" width="2" height="31"/>
  <path id="Rectangle_6_copy" data-name="Rectangle 6 copy" class="cls-2" d="M964.869,821.924l1.732,1-5.485,9.5-1.732-1Z" transform="translate(-941.5 -757.5)"/>
  <path id="Rectangle_6_copy_2" data-name="Rectangle 6 copy 2" class="cls-2" d="M955.673,821.986l-1.68,1.047,5.319,9.952,1.679-1.047Z" transform="translate(-941.5 -757.5)"/>
</svg>
